<svg xmlns="http://www.w3.org/2000/svg" width="6.434" height="8.195" viewBox="0 0 6.434 8.195">
    <path id="Path_124" data-name="Path 124" d="M6.434,3.386a3.31,3.31,0,0,1-.745,2.1A3.363,3.363,0,0,1,3.725,6.569V7.991c0,.068,0,.068-.068.135a.236.236,0,0,1-.135.068H2.844c-.068,0-.068,0-.135-.068a.094.094,0,0,1,0-.135V6.569A3.363,3.363,0,0,1,.745,5.486,3.31,3.31,0,0,1,0,3.386a.517.517,0,0,1,.135-.339.517.517,0,0,1,.339-.135.517.517,0,0,1,.339.135.372.372,0,0,1,.2.339,1.961,1.961,0,0,0,.677,1.558,2.2,2.2,0,0,0,1.558.677,1.961,1.961,0,0,0,1.558-.677,2.145,2.145,0,0,0,.61-1.558.479.479,0,0,1,.813-.339A.372.372,0,0,1,6.434,3.386Zm-4.741,0V1.49A1.348,1.348,0,0,1,2.167.406,1.43,1.43,0,0,1,3.251,0,1.263,1.263,0,0,1,4.334.474,1.378,1.378,0,0,1,4.741,1.49v1.9A1.348,1.348,0,0,1,4.267,4.47a1.378,1.378,0,0,1-1.016.406A1.43,1.43,0,0,1,2.167,4.47,1.348,1.348,0,0,1,1.693,3.386Z" fill="red"/>
</svg>